<svg width="24" height="23" viewBox="0 0 24 23" fill="none" xmlns="http://www.w3.org/2000/svg">
<path d="M11.1429 18.7144C11.6951 18.7144 12.1429 18.2666 12.1429 17.7144C12.1429 17.1621 11.6951 16.7144 11.1429 16.7144C10.5906 16.7144 10.1429 17.1621 10.1429 17.7144C10.1429 18.2666 10.5906 18.7144 11.1429 18.7144Z" fill="white"/>
<path d="M17.1429 18.7144C17.6951 18.7144 18.1429 18.2666 18.1429 17.7144C18.1429 17.1621 17.6951 16.7144 17.1429 16.7144C16.5906 16.7144 16.1429 17.1621 16.1429 17.7144C16.1429 18.2666 16.5906 18.7144 17.1429 18.7144Z" fill="white"/>
<path d="M5.14285 3.71436H7.87013L9.6974 12.6408C9.75975 12.9477 9.93052 13.2234 10.1798 13.4197C10.4291 13.6159 10.7411 13.7201 11.061 13.7141H17.6883C18.0083 13.7201 18.3202 13.6159 18.5695 13.4197C18.8188 13.2234 18.9896 12.9477 19.0519 12.6408L20.1429 7.04761H8.55194" stroke="white" stroke-linecap="round" stroke-linejoin="round"/>
</svg>
